# xmcd
#
# Track frame offsets: 
#        150
#        12947
#        29899
#        42811
#        56750
#        73421
#        90584
#        100175
#        118478
#        136391
#        153826
#        178051
#
# Disc length: 2584 seconds
#
# Revision: 0
# Processed by: cddbd v1.5.2PL0 Copyright (c) Steve Scherf et al.
# Submitted via: ExactAudioCopy v1.0b3
#
DISCID=ac0a160c
DTITLE=Pavel Bobek - Profil 1970-1979
DYEAR=1981
DGENRE=Country
TTITLE0=Oh Ruby, nechtěj mi lásku brát
TTITLE1=Křížem krážem
TTITLE2=Houston
TTITLE3=Krajem já šel
TTITLE4=Úsvit
TTITLE5=Vincent
TTITLE6=Ptačí styl
TTITLE7=Lásko, mně ubývá sil
TTITLE8=Je lepší vlakem jet než s tebou jít
TTITLE9=Nedělní ráno
TTITLE10=Rokenrolu dal jsem všechny nejlepší své dny
TTITLE11=Pojď dál a zpívej
EXTD=
EXTT0=
EXTT1=
EXTT2=
EXTT3=
EXTT4=
EXTT5=
EXTT6=
EXTT7=
EXTT8=
EXTT9=
EXTT10=
EXTT11=
PLAYORDER=
